<?xml version="1.0" encoding="utf-8"?>
<!-- Generator: Adobe Illustrator 25.0.1, SVG Export Plug-In . SVG Version: 6.00 Build 0)  -->
<svg version="1.1" id="Layer_1" xmlns="http://www.w3.org/2000/svg" xmlns:xlink="http://www.w3.org/1999/xlink" x="0px" y="0px"
	 viewBox="0 0 1024 1024" style="enable-background:new 0 0 1024 1024;" xml:space="preserve">
<style type="text/css">
	.st0{fill:#FFFFFF;}
	.st1{fill:#263238;}
	.st2{fill:#1976D2;}
	.st3{fill:#42A5F5;}
</style>
<g id="g5443-0-1-5-1-9" transform="matrix(0.55595317,0,0,0.55595317,-521.93484,-328.66104)">
	<g id="g8856-6-1-1-9-0-1-9" transform="matrix(0.09527033,0,0,0.09527033,-1695.2716,706.62921)">
		<circle id="circle8858-1-3-7-6-5-3-0" class="st0" cx="37315.2" cy="8454.7" r="9666.6">
		</circle>
		<path id="path8860-5-4-8-2-9-0-9" class="st1" d="M38897.2,8454.4c0,873.4-708,1581.5-1581.5,1581.5h0
			c-873.4,0-1581.5-708-1581.5-1581.5c0,0,0,0,0,0c0-873.4,708.1-1581.5,1581.5-1581.5C38189.2,6872.9,38897.2,7581,38897.2,8454.4z
			"/>
		<path id="path8862-5-5-9-1-3-6-3" class="st2" d="M44335.9,4400.8c-343.9-591.6-761.3-1137.3-1242.3-1624.1l-1828.3,1055.6
			c-569.9-486.8-1217.5-859.6-1908.9-1106.3c-624.2,632.6-1120,1339.4-1477.4,2108.1c2035.1-138.5,4137,598,6088.3,2122.6
			l1150.6-664.3C44938.2,5631.2,44675.4,4995.7,44335.9,4400.8L44335.9,4400.8z"/>
		<path id="path8864-4-8-1-2-4-4-4" class="st3" d="M44336.4,12507.2c340.4-593.6,604.3-1228,785.4-1887.9l-1828.3-1055.6
			c136.6-736.9,135.7-1484.2,3.7-2206.3c-859.9-224.3-1720-300.3-2564.4-225.5c1137.5,1693.2,1550.6,3881.8,1205.9,6333.9
			l1150.6,664.3C43571.9,13644.1,43990.9,13098.7,44336.4,12507.2L44336.4,12507.2z"/>
		<path id="path8866-7-5-5-0-6-4-7" class="st2" d="M37316.2,16560.9c684.3-2,1365.6-90.6,2027.7-263.8V14186
			c706.5-250.1,1353.2-624.6,1912.5-1100c-235.7-856.8-599.9-1639.7-1086.9-2333.6c-897.6,1831.7-2586.4,3283.7-4882.4,4211.3
			v1328.6C35949.4,16467.2,36631.2,16557.5,37316.2,16560.9z"/>
		<path id="path8868-6-7-4-7-2-7-3" class="st3" d="M30295.5,12508c343.9,591.6,761.3,1137.3,1242.3,1624.1l1828.3-1055.6
			c569.9,486.8,1217.5,859.6,1908.9,1106.3c624.2-632.6,1120-1339.4,1477.4-2108.1c-2035.1,138.5-4137-598-6088.3-2122.6
			l-1150.6,664.3C29693.2,11277.5,29956,11913.1,30295.5,12508L30295.5,12508z"/>
		<path id="path8870-5-3-9-3-5-5-1" class="st2" d="M30295.1,4401.6c-340.4,593.6-604.3,1228-785.4,1887.9L31338,7345
			c-136.6,736.9-135.7,1484.2-3.7,2206.3c859.9,224.3,1720,300.3,2564.4,225.5c-1137.5-1693.2-1550.6-3881.8-1205.9-6333.9
			l-1150.6-664.3C31059.5,3264.7,30640.5,3810,30295.1,4401.6z"/>
		<path id="path8872-6-3-2-1-3-3-7" class="st3" d="M37315.2,347.9c-684.3,2-1365.6,90.6-2027.7,263.8v2111.1
			c-706.5,250.1-1353.2,624.6-1912.5,1100c235.7,856.8,599.9,1639.7,1086.9,2333.6c897.6-1831.7,2586.4-3283.7,4882.4-4211.3V616.4
			C38682,441.5,38000.2,351.3,37315.2,347.9L37315.2,347.9z"/>
	</g>
</g>
</svg>
