<?xml version="1.0" encoding="utf-8"?>
<!-- Generator: Adobe Illustrator 24.1.0, SVG Export Plug-In . SVG Version: 6.00 Build 0)  -->
<svg version="1.1" id="Layer_1" xmlns="http://www.w3.org/2000/svg" xmlns:xlink="http://www.w3.org/1999/xlink" x="0px" y="0px"
	 viewBox="0 0 1024 1024" style="enable-background:new 0 0 1024 1024;" xml:space="preserve">
<style type="text/css">
	.st0{fill:#FE3959;}
	.st1{fill:none;}
	.st2{fill:#FFFFFF;}
</style>
<g>
	<rect class="st0" width="1022.5" height="1022.5"/>
	<path class="st1" d="M1023.8,513c0,167.6,0,335.1,0.2,502.7c0,6.6-1,8.3-8,8.3c-335.8-0.2-671.6-0.2-1007.5,0c-7.6,0-8.5-2-8.5-8.8
		C0.2,679.7,0.2,344.3,0,8.8C0,1.9,1,0,8.5,0C344,0.3,679.5,0.3,1015,0c7.8,0,9,2.1,9,9.3C1023.8,177.2,1023.8,345.1,1023.8,513z
		 M181.9,433.6c-7.3,9.8-12.8,17.6-18.6,25.2c-13.7,17.6-21.4,37.3-22.5,59.6c-0.4,8.6-0.3,17.3-0.3,25.9c0,54.2-0.2,108.4,0,162.6
		c0.1,33.6,22.5,58.7,54.8,60.8c33.4,2.2,59.2-24.7,60.5-51.3c0.4-7.6,5.4-6.1,9.8-6.1c163.6,0,327.2,0,490.8-0.2
		c7.3,0,9.3,2.1,10.2,9.2c3.8,30.1,34.2,52.5,64,47.9c31-4.8,50.8-27.9,50.9-60.3c0.2-56.2-0.8-112.4,0.4-168.6
		c0.7-33.5-7.6-62.9-29.6-88.4c-3.9-4.5-8.1-9.2-10.6-15.9c2.9-0.2,4.4-0.4,6-0.4c20.8-0.8,33.2-12.3,32.9-30.6
		c-0.3-17.9-13.6-29.5-34.1-29.6c-14.6-0.1-29.3-0.3-43.9,0.1c-5.6,0.2-9-1.8-12.3-6.3c-17.5-23.8-35.3-47.5-53-71.1
		c-20.1-26.8-46.7-42.5-80.6-42.6c-97.1-0.4-194.2-0.3-291.3,0c-30.7,0.1-56.3,12.6-75.4,36.6c-20.1,25.2-39,51.3-58.2,77.2
		c-3.3,4.4-6.6,6.5-12.3,6.3c-16-0.4-31.9-0.4-47.9,0c-17.8,0.4-30.8,13.3-31,30c-0.2,16.5,12.8,29.3,30.7,30
		C173.9,433.7,176.5,433.6,181.9,433.6z"/>
	<path class="st2" d="M181.9,433.6c-5.4,0-7.9,0.1-10.5,0c-17.9-0.7-30.9-13.5-30.7-30c0.2-16.7,13.2-29.6,31-30
		c16-0.4,31.9-0.3,47.9,0c5.7,0.1,9-1.9,12.3-6.3c19.2-25.9,38.1-52,58.2-77.2c19.1-23.9,44.7-36.5,75.4-36.6
		c97.1-0.3,194.2-0.4,291.3,0c33.9,0.1,60.4,15.8,80.6,42.6c17.8,23.7,35.5,47.3,53,71.1c3.3,4.5,6.6,6.4,12.3,6.3
		c14.6-0.4,29.3-0.2,43.9-0.1c20.6,0.1,33.9,11.7,34.1,29.6c0.3,18.3-12.1,29.8-32.9,30.6c-1.6,0.1-3.2,0.2-6,0.4
		c2.5,6.6,6.7,11.3,10.6,15.9c22,25.5,30.3,54.9,29.6,88.4c-1.1,56.2-0.2,112.4-0.4,168.6c-0.1,32.5-19.9,55.6-50.9,60.3
		c-29.8,4.6-60.3-17.8-64-47.9c-0.9-7.2-2.9-9.3-10.2-9.2c-163.6,0.2-327.2,0.2-490.8,0.2c-4.4,0-9.4-1.5-9.8,6.1
		c-1.3,26.6-27.1,53.6-60.5,51.3c-32.4-2.2-54.7-27.2-54.8-60.8c-0.2-54.2-0.1-108.4,0-162.6c0-8.6-0.2-17.3,0.3-25.9
		c1.1-22.2,8.9-42,22.5-59.6C169.1,451.2,174.6,443.4,181.9,433.6z M542.4,622.4c41.6,0.1,115.5-19.5,178.6-55.6
		c15.9-9.1,21.4-23.9,14.2-38.4c-7.2-14.7-24.9-20.6-40.9-13.5c-5.4,2.4-10.6,5.5-15.9,8.3c-85.4,43.9-174.4,52-266.7,26.5
		c-28-7.7-54-20-79.5-33.8c-16.3-8.8-35.2-2.9-42.8,12.3c-7.4,14.7-1.6,29.6,14.8,39C368.5,603.8,437.9,621.4,542.4,622.4z"/>
	<path class="st0" d="M542.4,622.4c-104.5-0.9-173.8-18.5-238.1-55.2c-16.5-9.4-22.2-24.3-14.8-39c7.6-15.1,26.5-21.1,42.8-12.3
		c25.5,13.8,51.5,26,79.5,33.8c92.3,25.5,181.3,17.4,266.7-26.5c5.3-2.7,10.5-5.8,15.9-8.3c16-7.2,33.6-1.2,40.9,13.5
		c7.2,14.6,1.7,29.3-14.2,38.4C657.9,602.9,583.9,622.5,542.4,622.4z"/>
</g>
</svg>
